<?xml version="1.0" encoding="UTF-8" standalone="no"?>
<!DOCTYPE svg PUBLIC "-//W3C//DTD SVG 1.1//EN"
 "http://www.w3.org/Graphics/SVG/1.1/DTD/svg11.dtd">
<!-- Generated by graphviz version 2.40.1 (20161225.0304)
 -->
<!-- Title: dependencies Pages: 1 -->
<svg width="586pt" height="428pt"
 viewBox="0.00 0.00 586.00 428.00" xmlns="http://www.w3.org/2000/svg" xmlns:xlink="http://www.w3.org/1999/xlink">
<g id="graph0" class="graph" transform="scale(1 1) rotate(0) translate(4 424)">
<title>dependencies</title>
<polygon fill="#ffffff" stroke="transparent" points="-4,4 -4,-424 582,-424 582,4 -4,4"/>
<text text-anchor="start" x="268.0091" y="-42.4" font-family="sans-serif" font-weight="bold" font-size="14.00" fill="#000000">Legend</text>
<polygon fill="#ffffb3" stroke="transparent" points="55,-10 55,-30 75,-30 75,-10 55,-10"/>
<text text-anchor="start" x="78.629" y="-15.4" font-family="sans-serif" font-size="14.00" fill="#000000"> &#160;Declarations</text>
<polygon fill="#8dd3c7" stroke="transparent" points="168,-10 168,-30 188,-30 188,-10 168,-10"/>
<text text-anchor="start" x="191.7251" y="-15.4" font-family="sans-serif" font-size="14.00" fill="#000000"> &#160;Module</text>
<polygon fill="#80b1d3" stroke="transparent" points="254,-10 254,-30 274,-30 274,-10 254,-10"/>
<text text-anchor="start" x="277.7812" y="-15.4" font-family="sans-serif" font-size="14.00" fill="#000000"> &#160;Bootstrap</text>
<polygon fill="#fdb462" stroke="transparent" points="351,-10 351,-30 371,-30 371,-10 351,-10"/>
<text text-anchor="start" x="374.6732" y="-15.4" font-family="sans-serif" font-size="14.00" fill="#000000"> &#160;Providers</text>
<polygon fill="#fb8072" stroke="transparent" points="447,-10 447,-30 467,-30 467,-10 447,-10"/>
<text text-anchor="start" x="470.7258" y="-15.4" font-family="sans-serif" font-size="14.00" fill="#000000"> &#160;Exports</text>
<g id="clust1" class="cluster">
<title>cluster_AppModule</title>
<polygon fill="none" stroke="#000000" stroke-dasharray="1,5" points="158,-200 158,-412 428,-412 428,-200 158,-200"/>
</g>
<g id="clust2" class="cluster">
<title>cluster_AppModule_declarations</title>
<polygon fill="none" stroke="#000000" points="169,-208 169,-260 291,-260 291,-208 169,-208"/>
</g>
<g id="clust4" class="cluster">
<title>cluster_AppModule_imports</title>
<polygon fill="none" stroke="#000000" points="299,-208 299,-260 417,-260 417,-208 299,-208"/>
</g>
<g id="clust5" class="cluster">
<title>cluster_AppModule_exports</title>
<polygon fill="none" stroke="#000000" points="166,-352 166,-404 288,-404 288,-352 166,-352"/>
</g>
<g id="clust6" class="cluster">
<title>cluster_AppModule_bootstrap</title>
<polygon fill="none" stroke="#000000" points="296,-352 296,-404 420,-404 420,-352 296,-352"/>
</g>
<g id="clust8" class="cluster">
<title>cluster_ButtonModule</title>
<polygon fill="none" stroke="#000000" stroke-dasharray="1,5" points="8,-70 8,-268 150,-268 150,-70 8,-70"/>
</g>
<g id="clust9" class="cluster">
<title>cluster_ButtonModule_declarations</title>
<polygon fill="none" stroke="#000000" points="19,-78 19,-130 141,-130 141,-78 19,-78"/>
</g>
<g id="clust12" class="cluster">
<title>cluster_ButtonModule_exports</title>
<polygon fill="none" stroke="#000000" points="16,-208 16,-260 142,-260 142,-208 16,-208"/>
</g>
<g id="clust15" class="cluster">
<title>cluster_LibraryModule</title>
<polygon fill="none" stroke="#000000" stroke-dasharray="1,5" points="436,-276 436,-344 570,-344 570,-276 436,-276"/>
</g>
<g id="clust18" class="cluster">
<title>cluster_LibraryModule_exports</title>
<polygon fill="none" stroke="#000000" points="444,-284 444,-336 562,-336 562,-284 444,-284"/>
</g>
<!-- AppComponent -->
<g id="node1" class="node">
<title>AppComponent</title>
<polygon fill="#ffffb3" stroke="#000000" points="282.9399,-252 177.0601,-252 177.0601,-216 282.9399,-216 282.9399,-252"/>
<text text-anchor="middle" x="230" y="-229.8" font-family="Times,serif" font-size="14.00" fill="#000000">AppComponent</text>
</g>
<!-- AppModule -->
<g id="node2" class="node">
<title>AppModule</title>
<polygon fill="#8dd3c7" stroke="#000000" points="271.6571,-328 268.6571,-332 247.6571,-332 244.6571,-328 188.3429,-328 188.3429,-292 271.6571,-292 271.6571,-328"/>
<text text-anchor="middle" x="230" y="-305.8" font-family="Times,serif" font-size="14.00" fill="#000000">AppModule</text>
</g>
<!-- AppComponent&#45;&gt;AppModule -->
<g id="edge1" class="edge">
<title>AppComponent&#45;&gt;AppModule</title>
<path fill="none" stroke="#000000" d="M230,-252.0109C230,-252.0109 230,-281.855 230,-281.855"/>
<polygon fill="#000000" stroke="#000000" points="226.5001,-281.8549 230,-291.855 233.5001,-281.855 226.5001,-281.8549"/>
</g>
<!-- LibraryModule  -->
<g id="node4" class="node">
<title>LibraryModule </title>
<polygon fill="#fb8072" stroke="#000000" points="279.5288,-396 174.4712,-396 174.4712,-360 279.5288,-360 279.5288,-396"/>
<text text-anchor="middle" x="227" y="-373.8" font-family="Times,serif" font-size="14.00" fill="#000000">LibraryModule </text>
</g>
<!-- AppModule&#45;&gt;LibraryModule  -->
<g id="edge3" class="edge">
<title>AppModule&#45;&gt;LibraryModule </title>
<path fill="none" stroke="#000000" stroke-dasharray="5,2" d="M230,-328.2228C230,-328.2228 230,-349.7269 230,-349.7269"/>
<polygon fill="#000000" stroke="#000000" points="226.5001,-349.7269 230,-359.7269 233.5001,-349.727 226.5001,-349.7269"/>
</g>
<!-- AppComponent  -->
<g id="node5" class="node">
<title>AppComponent </title>
<polygon fill="#80b1d3" stroke="#000000" points="412.439,-396 303.561,-396 303.561,-360 412.439,-360 412.439,-396"/>
<text text-anchor="middle" x="358" y="-373.8" font-family="Times,serif" font-size="14.00" fill="#000000">AppComponent </text>
</g>
<!-- AppModule&#45;&gt;AppComponent  -->
<g id="edge4" class="edge">
<title>AppModule&#45;&gt;AppComponent </title>
<path fill="none" stroke="#000000" stroke-dasharray="1,5" d="M271.912,-319C309.2422,-319 358,-319 358,-319 358,-319 358,-349.9775 358,-349.9775"/>
<polygon fill="#000000" stroke="#000000" points="354.5001,-349.9774 358,-359.9775 361.5001,-349.9775 354.5001,-349.9774"/>
</g>
<!-- LibraryModule -->
<g id="node3" class="node">
<title>LibraryModule</title>
<polygon fill="#8dd3c7" stroke="#000000" points="408.5299,-252 405.5299,-256 384.5299,-256 381.5299,-252 307.4701,-252 307.4701,-216 408.5299,-216 408.5299,-252"/>
<text text-anchor="middle" x="358" y="-229.8" font-family="Times,serif" font-size="14.00" fill="#000000">LibraryModule</text>
</g>
<!-- LibraryModule&#45;&gt;AppModule -->
<g id="edge2" class="edge">
<title>LibraryModule&#45;&gt;AppModule</title>
<path fill="none" stroke="#000000" d="M332.6178,-252.0109C332.6178,-274.4852 332.6178,-310 332.6178,-310 332.6178,-310 281.7386,-310 281.7386,-310"/>
<polygon fill="#000000" stroke="#000000" points="281.7386,-306.5001 271.7386,-310 281.7386,-313.5001 281.7386,-306.5001"/>
</g>
<!-- ButtonModule  -->
<g id="node9" class="node">
<title>ButtonModule </title>
<polygon fill="#fb8072" stroke="#000000" points="553.6677,-328 452.3323,-328 452.3323,-292 553.6677,-292 553.6677,-328"/>
<text text-anchor="middle" x="503" y="-305.8" font-family="Times,serif" font-size="14.00" fill="#000000">ButtonModule </text>
</g>
<!-- LibraryModule&#45;&gt;ButtonModule  -->
<g id="edge8" class="edge">
<title>LibraryModule&#45;&gt;ButtonModule </title>
<path fill="none" stroke="#000000" stroke-dasharray="5,2" d="M383.3822,-252.308C383.3822,-272.1455 383.3822,-301 383.3822,-301 383.3822,-301 442.2713,-301 442.2713,-301"/>
<polygon fill="#000000" stroke="#000000" points="442.2713,-304.5001 452.2713,-301 442.2712,-297.5001 442.2713,-304.5001"/>
</g>
<!-- ButtonDirective -->
<g id="node6" class="node">
<title>ButtonDirective</title>
<polygon fill="#ffffb3" stroke="#000000" points="133.2008,-122 26.7992,-122 26.7992,-86 133.2008,-86 133.2008,-122"/>
<text text-anchor="middle" x="80" y="-99.8" font-family="Times,serif" font-size="14.00" fill="#000000">ButtonDirective</text>
</g>
<!-- ButtonModule -->
<g id="node7" class="node">
<title>ButtonModule</title>
<polygon fill="#8dd3c7" stroke="#000000" points="128.6682,-187 125.6682,-191 104.6682,-191 101.6682,-187 31.3318,-187 31.3318,-151 128.6682,-151 128.6682,-187"/>
<text text-anchor="middle" x="80" y="-164.8" font-family="Times,serif" font-size="14.00" fill="#000000">ButtonModule</text>
</g>
<!-- ButtonDirective&#45;&gt;ButtonModule -->
<g id="edge5" class="edge">
<title>ButtonDirective&#45;&gt;ButtonModule</title>
<path fill="none" stroke="#000000" d="M80,-122.1061C80,-122.1061 80,-140.991 80,-140.991"/>
<polygon fill="#000000" stroke="#000000" points="76.5001,-140.9909 80,-150.991 83.5001,-140.991 76.5001,-140.9909"/>
</g>
<!-- ButtonModule&#45;&gt;LibraryModule -->
<g id="edge7" class="edge">
<title>ButtonModule&#45;&gt;LibraryModule</title>
<path fill="none" stroke="#000000" d="M128.742,-169C208.4712,-169 358,-169 358,-169 358,-169 358,-205.8939 358,-205.8939"/>
<polygon fill="#000000" stroke="#000000" points="354.5001,-205.8938 358,-215.8939 361.5001,-205.8939 354.5001,-205.8938"/>
</g>
<!-- ButtonDirective  -->
<g id="node8" class="node">
<title>ButtonDirective </title>
<polygon fill="#fb8072" stroke="#000000" points="133.701,-252 24.299,-252 24.299,-216 133.701,-216 133.701,-252"/>
<text text-anchor="middle" x="79" y="-229.8" font-family="Times,serif" font-size="14.00" fill="#000000">ButtonDirective </text>
</g>
<!-- ButtonModule&#45;&gt;ButtonDirective  -->
<g id="edge6" class="edge">
<title>ButtonModule&#45;&gt;ButtonDirective </title>
<path fill="none" stroke="#000000" stroke-dasharray="5,2" d="M80,-187.1061C80,-187.1061 80,-205.991 80,-205.991"/>
<polygon fill="#000000" stroke="#000000" points="76.5001,-205.9909 80,-215.991 83.5001,-205.991 76.5001,-205.9909"/>
</g>
</g>
</svg>
