<?xml version="1.0" encoding="UTF-8" standalone="no"?>
<!DOCTYPE svg PUBLIC "-//W3C//DTD SVG 1.1//EN"
 "http://www.w3.org/Graphics/SVG/1.1/DTD/svg11.dtd">
<!-- Generated by graphviz version 2.40.1 (20161225.0304)
 -->
<!-- Title: dependencies Pages: 1 -->
<svg width="504pt" height="284pt"
 viewBox="0.00 0.00 504.00 284.00" xmlns="http://www.w3.org/2000/svg" xmlns:xlink="http://www.w3.org/1999/xlink">
<g id="graph0" class="graph" transform="scale(1 1) rotate(0) translate(4 280)">
<title>dependencies</title>
<polygon fill="#ffffff" stroke="transparent" points="-4,4 -4,-280 500,-280 500,4 -4,4"/>
<text text-anchor="start" x="227.0091" y="-42.4" font-family="sans-serif" font-weight="bold" font-size="14.00" fill="#000000">Legend</text>
<polygon fill="#ffffb3" stroke="transparent" points="14,-10 14,-30 34,-30 34,-10 14,-10"/>
<text text-anchor="start" x="37.629" y="-15.4" font-family="sans-serif" font-size="14.00" fill="#000000"> &#160;Declarations</text>
<polygon fill="#8dd3c7" stroke="transparent" points="127,-10 127,-30 147,-30 147,-10 127,-10"/>
<text text-anchor="start" x="150.7251" y="-15.4" font-family="sans-serif" font-size="14.00" fill="#000000"> &#160;Module</text>
<polygon fill="#80b1d3" stroke="transparent" points="213,-10 213,-30 233,-30 233,-10 213,-10"/>
<text text-anchor="start" x="236.7812" y="-15.4" font-family="sans-serif" font-size="14.00" fill="#000000"> &#160;Bootstrap</text>
<polygon fill="#fdb462" stroke="transparent" points="310,-10 310,-30 330,-30 330,-10 310,-10"/>
<text text-anchor="start" x="333.6732" y="-15.4" font-family="sans-serif" font-size="14.00" fill="#000000"> &#160;Providers</text>
<polygon fill="#fb8072" stroke="transparent" points="406,-10 406,-30 426,-30 426,-10 406,-10"/>
<text text-anchor="start" x="429.7258" y="-15.4" font-family="sans-serif" font-size="14.00" fill="#000000"> &#160;Exports</text>
<g id="clust1" class="cluster">
<title>cluster_AppModule</title>
<polygon fill="none" stroke="#000000" stroke-dasharray="1,5" points="113,-70 113,-268 383,-268 383,-70 113,-70"/>
</g>
<g id="clust2" class="cluster">
<title>cluster_AppModule_declarations</title>
<polygon fill="none" stroke="#000000" points="250,-78 250,-130 372,-130 372,-78 250,-78"/>
</g>
<g id="clust4" class="cluster">
<title>cluster_AppModule_imports</title>
<polygon fill="none" stroke="#000000" points="124,-78 124,-130 242,-130 242,-78 124,-78"/>
</g>
<g id="clust5" class="cluster">
<title>cluster_AppModule_exports</title>
<polygon fill="none" stroke="#000000" points="121,-208 121,-260 243,-260 243,-208 121,-208"/>
</g>
<g id="clust6" class="cluster">
<title>cluster_AppModule_bootstrap</title>
<polygon fill="none" stroke="#000000" points="251,-208 251,-260 375,-260 375,-208 251,-208"/>
</g>
<!-- AppComponent -->
<g id="node1" class="node">
<title>AppComponent</title>
<polygon fill="#ffffb3" stroke="#000000" points="363.9399,-122 258.0601,-122 258.0601,-86 363.9399,-86 363.9399,-122"/>
<text text-anchor="middle" x="311" y="-99.8" font-family="Times,serif" font-size="14.00" fill="#000000">AppComponent</text>
</g>
<!-- AppModule -->
<g id="node2" class="node">
<title>AppModule</title>
<polygon fill="#8dd3c7" stroke="#000000" points="225.6571,-187 222.6571,-191 201.6571,-191 198.6571,-187 142.3429,-187 142.3429,-151 225.6571,-151 225.6571,-187"/>
<text text-anchor="middle" x="184" y="-164.8" font-family="Times,serif" font-size="14.00" fill="#000000">AppModule</text>
</g>
<!-- AppComponent&#45;&gt;AppModule -->
<g id="edge1" class="edge">
<title>AppComponent&#45;&gt;AppModule</title>
<path fill="none" stroke="#000000" d="M328.6565,-122.0225C328.6565,-139.3734 328.6565,-163 328.6565,-163 328.6565,-163 235.8407,-163 235.8407,-163"/>
<polygon fill="#000000" stroke="#000000" points="235.8407,-159.5001 225.8407,-163 235.8406,-166.5001 235.8407,-159.5001"/>
</g>
<!-- LibraryModule  -->
<g id="node4" class="node">
<title>LibraryModule </title>
<polygon fill="#fb8072" stroke="#000000" points="234.5288,-252 129.4712,-252 129.4712,-216 234.5288,-216 234.5288,-252"/>
<text text-anchor="middle" x="182" y="-229.8" font-family="Times,serif" font-size="14.00" fill="#000000">LibraryModule </text>
</g>
<!-- AppModule&#45;&gt;LibraryModule  -->
<g id="edge3" class="edge">
<title>AppModule&#45;&gt;LibraryModule </title>
<path fill="none" stroke="#000000" stroke-dasharray="5,2" d="M184,-187.1061C184,-187.1061 184,-205.991 184,-205.991"/>
<polygon fill="#000000" stroke="#000000" points="180.5001,-205.9909 184,-215.991 187.5001,-205.991 180.5001,-205.9909"/>
</g>
<!-- AppComponent  -->
<g id="node5" class="node">
<title>AppComponent </title>
<polygon fill="#80b1d3" stroke="#000000" points="367.439,-252 258.561,-252 258.561,-216 367.439,-216 367.439,-252"/>
<text text-anchor="middle" x="313" y="-229.8" font-family="Times,serif" font-size="14.00" fill="#000000">AppComponent </text>
</g>
<!-- AppModule&#45;&gt;AppComponent  -->
<g id="edge4" class="edge">
<title>AppModule&#45;&gt;AppComponent </title>
<path fill="none" stroke="#000000" stroke-dasharray="1,5" d="M225.7452,-175C256.7163,-175 293.5935,-175 293.5935,-175 293.5935,-175 293.5935,-205.9775 293.5935,-205.9775"/>
<polygon fill="#000000" stroke="#000000" points="290.0936,-205.9774 293.5935,-215.9775 297.0936,-205.9775 290.0936,-205.9774"/>
</g>
<!-- LibraryModule -->
<g id="node3" class="node">
<title>LibraryModule</title>
<polygon fill="#8dd3c7" stroke="#000000" points="233.5299,-122 230.5299,-126 209.5299,-126 206.5299,-122 132.4701,-122 132.4701,-86 233.5299,-86 233.5299,-122"/>
<text text-anchor="middle" x="183" y="-99.8" font-family="Times,serif" font-size="14.00" fill="#000000">LibraryModule</text>
</g>
<!-- LibraryModule&#45;&gt;AppModule -->
<g id="edge2" class="edge">
<title>LibraryModule&#45;&gt;AppModule</title>
<path fill="none" stroke="#000000" d="M184,-122.1061C184,-122.1061 184,-140.991 184,-140.991"/>
<polygon fill="#000000" stroke="#000000" points="180.5001,-140.9909 184,-150.991 187.5001,-140.991 180.5001,-140.9909"/>
</g>
</g>
</svg>
